<mxfile host="app.diagrams.net" modified="2020-10-08T10:19:13.089Z" agent="5.0 (Windows NT 10.0; Win64; x64) AppleWebKit/537.36 (KHTML, like Gecko) Chrome/85.0.4183.121 Safari/537.36" etag="NndF2-M9Bc_5DAUB28vi" version="13.6.2" type="github">
  <diagram id="C5RBs43oDa-KdzZeNtuy" name="Page-1">
    <mxGraphModel dx="2019" dy="582" grid="1" gridSize="10" guides="1" tooltips="1" connect="1" arrows="1" fold="1" page="1" pageScale="1" pageWidth="827" pageHeight="1169" math="0" shadow="0">
      <root>
        <mxCell id="WIyWlLk6GJQsqaUBKTNV-0" />
        <mxCell id="WIyWlLk6GJQsqaUBKTNV-1" parent="WIyWlLk6GJQsqaUBKTNV-0" />
        <mxCell id="r75jW0JB1b5-8rUYqXUx-0" value="START" style="ellipse;whiteSpace=wrap;html=1;" vertex="1" parent="WIyWlLk6GJQsqaUBKTNV-1">
          <mxGeometry x="190" y="10" width="120" height="60" as="geometry" />
        </mxCell>
        <mxCell id="r75jW0JB1b5-8rUYqXUx-1" value="" style="endArrow=classic;html=1;exitX=0.5;exitY=1;exitDx=0;exitDy=0;entryX=0.5;entryY=0;entryDx=0;entryDy=0;" edge="1" parent="WIyWlLk6GJQsqaUBKTNV-1" source="r75jW0JB1b5-8rUYqXUx-0" target="r75jW0JB1b5-8rUYqXUx-2">
          <mxGeometry width="50" height="50" relative="1" as="geometry">
            <mxPoint x="230" y="150" as="sourcePoint" />
            <mxPoint x="220" y="140" as="targetPoint" />
          </mxGeometry>
        </mxCell>
        <mxCell id="r75jW0JB1b5-8rUYqXUx-2" value="print INSERT COIN&amp;nbsp;" style="shape=parallelogram;perimeter=parallelogramPerimeter;whiteSpace=wrap;html=1;fixedSize=1;" vertex="1" parent="WIyWlLk6GJQsqaUBKTNV-1">
          <mxGeometry x="150" y="110" width="200" height="60" as="geometry" />
        </mxCell>
        <mxCell id="r75jW0JB1b5-8rUYqXUx-3" value="get COIN" style="shape=parallelogram;perimeter=parallelogramPerimeter;whiteSpace=wrap;html=1;fixedSize=1;" vertex="1" parent="WIyWlLk6GJQsqaUBKTNV-1">
          <mxGeometry x="150" y="320" width="200" height="60" as="geometry" />
        </mxCell>
        <mxCell id="r75jW0JB1b5-8rUYqXUx-4" value="" style="endArrow=classic;html=1;exitX=0.5;exitY=1;exitDx=0;exitDy=0;entryX=0.5;entryY=0;entryDx=0;entryDy=0;" edge="1" parent="WIyWlLk6GJQsqaUBKTNV-1" source="r75jW0JB1b5-8rUYqXUx-2" target="r75jW0JB1b5-8rUYqXUx-23">
          <mxGeometry width="50" height="50" relative="1" as="geometry">
            <mxPoint x="240" y="200" as="sourcePoint" />
            <mxPoint x="260" y="230" as="targetPoint" />
          </mxGeometry>
        </mxCell>
        <mxCell id="r75jW0JB1b5-8rUYqXUx-5" value="COIN == { 5, 2, 1, 0.5, 0.2. 0.1 }" style="rhombus;whiteSpace=wrap;html=1;" vertex="1" parent="WIyWlLk6GJQsqaUBKTNV-1">
          <mxGeometry x="160" y="430" width="180" height="160" as="geometry" />
        </mxCell>
        <mxCell id="r75jW0JB1b5-8rUYqXUx-7" value="" style="endArrow=classic;html=1;exitX=0.5;exitY=1;exitDx=0;exitDy=0;entryX=0.5;entryY=0;entryDx=0;entryDy=0;" edge="1" parent="WIyWlLk6GJQsqaUBKTNV-1" source="r75jW0JB1b5-8rUYqXUx-3" target="r75jW0JB1b5-8rUYqXUx-5">
          <mxGeometry width="50" height="50" relative="1" as="geometry">
            <mxPoint x="380" y="440" as="sourcePoint" />
            <mxPoint x="430" y="390" as="targetPoint" />
          </mxGeometry>
        </mxCell>
        <mxCell id="r75jW0JB1b5-8rUYqXUx-10" value="" style="endArrow=classic;html=1;entryX=0;entryY=0.5;entryDx=0;entryDy=0;exitX=1;exitY=0.5;exitDx=0;exitDy=0;" edge="1" parent="WIyWlLk6GJQsqaUBKTNV-1" source="r75jW0JB1b5-8rUYqXUx-5" target="r75jW0JB1b5-8rUYqXUx-26">
          <mxGeometry relative="1" as="geometry">
            <mxPoint x="360" y="510" as="sourcePoint" />
            <mxPoint x="460" y="510" as="targetPoint" />
            <Array as="points" />
          </mxGeometry>
        </mxCell>
        <mxCell id="r75jW0JB1b5-8rUYqXUx-11" value="YES" style="edgeLabel;resizable=0;html=1;align=center;verticalAlign=middle;" connectable="0" vertex="1" parent="r75jW0JB1b5-8rUYqXUx-10">
          <mxGeometry relative="1" as="geometry" />
        </mxCell>
        <mxCell id="r75jW0JB1b5-8rUYqXUx-20" value="" style="endArrow=classic;html=1;entryX=0.5;entryY=0;entryDx=0;entryDy=0;" edge="1" parent="WIyWlLk6GJQsqaUBKTNV-1" target="r75jW0JB1b5-8rUYqXUx-22">
          <mxGeometry relative="1" as="geometry">
            <mxPoint x="160" y="510" as="sourcePoint" />
            <mxPoint x="80" y="720" as="targetPoint" />
            <Array as="points">
              <mxPoint x="75" y="510" />
              <mxPoint x="75" y="530" />
            </Array>
          </mxGeometry>
        </mxCell>
        <mxCell id="r75jW0JB1b5-8rUYqXUx-21" value="NO" style="edgeLabel;resizable=0;html=1;align=center;verticalAlign=middle;" connectable="0" vertex="1" parent="r75jW0JB1b5-8rUYqXUx-20">
          <mxGeometry relative="1" as="geometry">
            <mxPoint x="40" y="-15" as="offset" />
          </mxGeometry>
        </mxCell>
        <mxCell id="r75jW0JB1b5-8rUYqXUx-22" value="return COINS" style="shape=parallelogram;perimeter=parallelogramPerimeter;whiteSpace=wrap;html=1;fixedSize=1;size=10;" vertex="1" parent="WIyWlLk6GJQsqaUBKTNV-1">
          <mxGeometry x="10" y="630" width="130" height="60" as="geometry" />
        </mxCell>
        <mxCell id="r75jW0JB1b5-8rUYqXUx-25" value="" style="edgeStyle=orthogonalEdgeStyle;rounded=0;orthogonalLoop=1;jettySize=auto;html=1;" edge="1" parent="WIyWlLk6GJQsqaUBKTNV-1" source="r75jW0JB1b5-8rUYqXUx-23" target="r75jW0JB1b5-8rUYqXUx-3">
          <mxGeometry relative="1" as="geometry" />
        </mxCell>
        <mxCell id="r75jW0JB1b5-8rUYqXUx-23" value="currentAmount = 0" style="rounded=0;whiteSpace=wrap;html=1;" vertex="1" parent="WIyWlLk6GJQsqaUBKTNV-1">
          <mxGeometry x="190" y="210" width="120" height="60" as="geometry" />
        </mxCell>
        <mxCell id="r75jW0JB1b5-8rUYqXUx-28" value="" style="edgeStyle=orthogonalEdgeStyle;rounded=0;orthogonalLoop=1;jettySize=auto;html=1;" edge="1" parent="WIyWlLk6GJQsqaUBKTNV-1" source="r75jW0JB1b5-8rUYqXUx-26" target="r75jW0JB1b5-8rUYqXUx-27">
          <mxGeometry relative="1" as="geometry" />
        </mxCell>
        <mxCell id="r75jW0JB1b5-8rUYqXUx-26" value="&lt;span style=&quot;color: rgb(0 , 0 , 0) ; font-family: &amp;#34;helvetica&amp;#34; ; font-size: 12px ; font-style: normal ; font-weight: 400 ; letter-spacing: normal ; text-align: center ; text-indent: 0px ; text-transform: none ; word-spacing: 0px ; background-color: rgb(248 , 249 , 250) ; display: inline ; float: none&quot;&gt;currentAmount += COIN&lt;/span&gt;" style="rounded=0;whiteSpace=wrap;html=1;" vertex="1" parent="WIyWlLk6GJQsqaUBKTNV-1">
          <mxGeometry x="390" y="480" width="140" height="60" as="geometry" />
        </mxCell>
        <mxCell id="r75jW0JB1b5-8rUYqXUx-57" value="" style="edgeStyle=orthogonalEdgeStyle;rounded=0;orthogonalLoop=1;jettySize=auto;html=1;" edge="1" parent="WIyWlLk6GJQsqaUBKTNV-1" source="r75jW0JB1b5-8rUYqXUx-27" target="r75jW0JB1b5-8rUYqXUx-52">
          <mxGeometry relative="1" as="geometry" />
        </mxCell>
        <mxCell id="r75jW0JB1b5-8rUYqXUx-27" value="print currentAmount" style="shape=parallelogram;perimeter=parallelogramPerimeter;whiteSpace=wrap;html=1;fixedSize=1;rounded=0;" vertex="1" parent="WIyWlLk6GJQsqaUBKTNV-1">
          <mxGeometry x="540" y="480" width="180" height="60" as="geometry" />
        </mxCell>
        <mxCell id="r75jW0JB1b5-8rUYqXUx-30" value="Is product selected" style="rhombus;whiteSpace=wrap;html=1;rounded=0;" vertex="1" parent="WIyWlLk6GJQsqaUBKTNV-1">
          <mxGeometry x="950" y="440" width="107" height="140" as="geometry" />
        </mxCell>
        <mxCell id="r75jW0JB1b5-8rUYqXUx-34" value="" style="endArrow=classic;html=1;entryX=1;entryY=0.5;entryDx=0;entryDy=0;exitX=0.5;exitY=0;exitDx=0;exitDy=0;" edge="1" parent="WIyWlLk6GJQsqaUBKTNV-1" source="r75jW0JB1b5-8rUYqXUx-30" target="r75jW0JB1b5-8rUYqXUx-3">
          <mxGeometry relative="1" as="geometry">
            <mxPoint x="770" y="400" as="sourcePoint" />
            <mxPoint x="630" y="400" as="targetPoint" />
            <Array as="points">
              <mxPoint x="900" y="440" />
              <mxPoint x="900" y="350" />
            </Array>
          </mxGeometry>
        </mxCell>
        <mxCell id="r75jW0JB1b5-8rUYqXUx-35" value="NO" style="edgeLabel;resizable=0;html=1;align=center;verticalAlign=middle;" connectable="0" vertex="1" parent="r75jW0JB1b5-8rUYqXUx-34">
          <mxGeometry relative="1" as="geometry">
            <mxPoint x="238.5" y="90" as="offset" />
          </mxGeometry>
        </mxCell>
        <mxCell id="r75jW0JB1b5-8rUYqXUx-38" value="currentAmount &amp;gt;= productPrice" style="rhombus;whiteSpace=wrap;html=1;" vertex="1" parent="WIyWlLk6GJQsqaUBKTNV-1">
          <mxGeometry x="899.5" y="830" width="120.5" height="140" as="geometry" />
        </mxCell>
        <mxCell id="r75jW0JB1b5-8rUYqXUx-40" value="" style="endArrow=classic;html=1;exitX=1;exitY=0.5;exitDx=0;exitDy=0;entryX=1;entryY=0.5;entryDx=0;entryDy=0;" edge="1" parent="WIyWlLk6GJQsqaUBKTNV-1" source="r75jW0JB1b5-8rUYqXUx-38" target="r75jW0JB1b5-8rUYqXUx-42">
          <mxGeometry relative="1" as="geometry">
            <mxPoint x="980" y="690" as="sourcePoint" />
            <mxPoint x="930" y="280" as="targetPoint" />
            <Array as="points">
              <mxPoint x="1170" y="900" />
            </Array>
          </mxGeometry>
        </mxCell>
        <mxCell id="r75jW0JB1b5-8rUYqXUx-41" value="NO" style="edgeLabel;resizable=0;html=1;align=center;verticalAlign=middle;" connectable="0" vertex="1" parent="r75jW0JB1b5-8rUYqXUx-40">
          <mxGeometry relative="1" as="geometry">
            <mxPoint x="-151.5" y="134.99" as="offset" />
          </mxGeometry>
        </mxCell>
        <mxCell id="r75jW0JB1b5-8rUYqXUx-42" value="print PRICE: productPrice" style="shape=parallelogram;perimeter=parallelogramPerimeter;whiteSpace=wrap;html=1;fixedSize=1;shadow=1;" vertex="1" parent="WIyWlLk6GJQsqaUBKTNV-1">
          <mxGeometry x="985" y="210" width="190" height="60" as="geometry" />
        </mxCell>
        <mxCell id="r75jW0JB1b5-8rUYqXUx-44" value="" style="endArrow=classic;html=1;exitX=0;exitY=0.5;exitDx=0;exitDy=0;entryX=0;entryY=0.5;entryDx=0;entryDy=0;" edge="1" parent="WIyWlLk6GJQsqaUBKTNV-1" source="r75jW0JB1b5-8rUYqXUx-22" target="r75jW0JB1b5-8rUYqXUx-2">
          <mxGeometry width="50" height="50" relative="1" as="geometry">
            <mxPoint x="20" y="480" as="sourcePoint" />
            <mxPoint x="70" y="430" as="targetPoint" />
            <Array as="points">
              <mxPoint x="-30" y="660" />
              <mxPoint x="-30" y="140" />
            </Array>
          </mxGeometry>
        </mxCell>
        <mxCell id="r75jW0JB1b5-8rUYqXUx-45" value="" style="endArrow=classic;html=1;exitX=0;exitY=0.5;exitDx=0;exitDy=0;" edge="1" parent="WIyWlLk6GJQsqaUBKTNV-1" source="r75jW0JB1b5-8rUYqXUx-38" target="r75jW0JB1b5-8rUYqXUx-49">
          <mxGeometry relative="1" as="geometry">
            <mxPoint x="600" y="902" as="sourcePoint" />
            <mxPoint x="680" y="902.5" as="targetPoint" />
          </mxGeometry>
        </mxCell>
        <mxCell id="r75jW0JB1b5-8rUYqXUx-46" value="YES" style="edgeLabel;resizable=0;html=1;align=center;verticalAlign=middle;" connectable="0" vertex="1" parent="r75jW0JB1b5-8rUYqXUx-45">
          <mxGeometry relative="1" as="geometry" />
        </mxCell>
        <mxCell id="r75jW0JB1b5-8rUYqXUx-67" value="" style="edgeStyle=orthogonalEdgeStyle;rounded=0;orthogonalLoop=1;jettySize=auto;html=1;" edge="1" parent="WIyWlLk6GJQsqaUBKTNV-1" source="r75jW0JB1b5-8rUYqXUx-49" target="r75jW0JB1b5-8rUYqXUx-66">
          <mxGeometry relative="1" as="geometry" />
        </mxCell>
        <mxCell id="r75jW0JB1b5-8rUYqXUx-49" value="change = currentAmount - productPrice" style="rounded=0;whiteSpace=wrap;html=1;" vertex="1" parent="WIyWlLk6GJQsqaUBKTNV-1">
          <mxGeometry x="717" y="870" width="120" height="60" as="geometry" />
        </mxCell>
        <mxCell id="r75jW0JB1b5-8rUYqXUx-93" value="" style="edgeStyle=orthogonalEdgeStyle;rounded=0;orthogonalLoop=1;jettySize=auto;html=1;" edge="1" parent="WIyWlLk6GJQsqaUBKTNV-1" source="r75jW0JB1b5-8rUYqXUx-50" target="r75jW0JB1b5-8rUYqXUx-92">
          <mxGeometry relative="1" as="geometry" />
        </mxCell>
        <mxCell id="r75jW0JB1b5-8rUYqXUx-50" value="for each value in { 5, 2, 1, 0.5, 0.2, 0.1} as VALUE :&lt;br&gt;change &amp;gt;= VALUE" style="rhombus;whiteSpace=wrap;html=1;rounded=0;" vertex="1" parent="WIyWlLk6GJQsqaUBKTNV-1">
          <mxGeometry x="400" y="903.13" width="290" height="218.75" as="geometry" />
        </mxCell>
        <mxCell id="r75jW0JB1b5-8rUYqXUx-52" value="has user clicked return coins button" style="rhombus;whiteSpace=wrap;html=1;shadow=1;" vertex="1" parent="WIyWlLk6GJQsqaUBKTNV-1">
          <mxGeometry x="740" y="450" width="150" height="120" as="geometry" />
        </mxCell>
        <mxCell id="r75jW0JB1b5-8rUYqXUx-54" value="" style="endArrow=classic;html=1;entryX=0;entryY=0.5;entryDx=0;entryDy=0;exitX=1;exitY=0.5;exitDx=0;exitDy=0;" edge="1" parent="WIyWlLk6GJQsqaUBKTNV-1" source="r75jW0JB1b5-8rUYqXUx-52" target="r75jW0JB1b5-8rUYqXUx-30">
          <mxGeometry relative="1" as="geometry">
            <mxPoint x="390" y="550" as="sourcePoint" />
            <mxPoint x="550" y="550" as="targetPoint" />
          </mxGeometry>
        </mxCell>
        <mxCell id="r75jW0JB1b5-8rUYqXUx-55" value="NO" style="edgeLabel;resizable=0;html=1;align=center;verticalAlign=middle;" connectable="0" vertex="1" parent="r75jW0JB1b5-8rUYqXUx-54">
          <mxGeometry relative="1" as="geometry" />
        </mxCell>
        <mxCell id="r75jW0JB1b5-8rUYqXUx-58" value="" style="endArrow=classic;html=1;entryX=1;entryY=0.5;entryDx=0;entryDy=0;exitX=0.5;exitY=1;exitDx=0;exitDy=0;" edge="1" parent="WIyWlLk6GJQsqaUBKTNV-1" source="r75jW0JB1b5-8rUYqXUx-52" target="r75jW0JB1b5-8rUYqXUx-22">
          <mxGeometry relative="1" as="geometry">
            <mxPoint x="390" y="550" as="sourcePoint" />
            <mxPoint x="550" y="550" as="targetPoint" />
            <Array as="points">
              <mxPoint x="310" y="570" />
              <mxPoint x="310" y="660" />
            </Array>
          </mxGeometry>
        </mxCell>
        <mxCell id="r75jW0JB1b5-8rUYqXUx-59" value="YES" style="edgeLabel;resizable=0;html=1;align=center;verticalAlign=middle;" connectable="0" vertex="1" parent="r75jW0JB1b5-8rUYqXUx-58">
          <mxGeometry relative="1" as="geometry">
            <mxPoint x="320" as="offset" />
          </mxGeometry>
        </mxCell>
        <mxCell id="r75jW0JB1b5-8rUYqXUx-61" value="coinsToChange.add(value)&lt;br&gt;change -= value" style="whiteSpace=wrap;html=1;rounded=0;" vertex="1" parent="WIyWlLk6GJQsqaUBKTNV-1">
          <mxGeometry x="196.25" y="840" width="158.75" height="60" as="geometry" />
        </mxCell>
        <mxCell id="r75jW0JB1b5-8rUYqXUx-63" value="" style="endArrow=classic;html=1;entryX=0.5;entryY=1;entryDx=0;entryDy=0;exitX=0.5;exitY=0;exitDx=0;exitDy=0;" edge="1" parent="WIyWlLk6GJQsqaUBKTNV-1" source="r75jW0JB1b5-8rUYqXUx-92" target="r75jW0JB1b5-8rUYqXUx-61">
          <mxGeometry relative="1" as="geometry">
            <mxPoint x="100" y="830" as="sourcePoint" />
            <mxPoint x="171.25" y="742.5" as="targetPoint" />
          </mxGeometry>
        </mxCell>
        <mxCell id="r75jW0JB1b5-8rUYqXUx-64" value="YES" style="edgeLabel;resizable=0;html=1;align=center;verticalAlign=middle;" connectable="0" vertex="1" parent="r75jW0JB1b5-8rUYqXUx-63">
          <mxGeometry relative="1" as="geometry" />
        </mxCell>
        <mxCell id="r75jW0JB1b5-8rUYqXUx-68" value="" style="edgeStyle=orthogonalEdgeStyle;rounded=0;orthogonalLoop=1;jettySize=auto;html=1;" edge="1" parent="WIyWlLk6GJQsqaUBKTNV-1" source="r75jW0JB1b5-8rUYqXUx-66" target="r75jW0JB1b5-8rUYqXUx-50">
          <mxGeometry relative="1" as="geometry" />
        </mxCell>
        <mxCell id="r75jW0JB1b5-8rUYqXUx-66" value="coinsToChange = { }" style="rounded=0;whiteSpace=wrap;html=1;shadow=1;" vertex="1" parent="WIyWlLk6GJQsqaUBKTNV-1">
          <mxGeometry x="717" y="982.5" width="120" height="60" as="geometry" />
        </mxCell>
        <mxCell id="r75jW0JB1b5-8rUYqXUx-71" value="Is product available" style="rhombus;whiteSpace=wrap;html=1;rounded=0;" vertex="1" parent="WIyWlLk6GJQsqaUBKTNV-1">
          <mxGeometry x="703.5" y="630" width="133.5" height="140" as="geometry" />
        </mxCell>
        <mxCell id="r75jW0JB1b5-8rUYqXUx-73" value="" style="endArrow=classic;html=1;entryX=0.5;entryY=0;entryDx=0;entryDy=0;exitX=0.5;exitY=1;exitDx=0;exitDy=0;" edge="1" parent="WIyWlLk6GJQsqaUBKTNV-1" source="r75jW0JB1b5-8rUYqXUx-30" target="r75jW0JB1b5-8rUYqXUx-71">
          <mxGeometry relative="1" as="geometry">
            <mxPoint x="740" y="620" as="sourcePoint" />
            <mxPoint x="900" y="620" as="targetPoint" />
            <Array as="points">
              <mxPoint x="1004" y="630" />
            </Array>
          </mxGeometry>
        </mxCell>
        <mxCell id="r75jW0JB1b5-8rUYqXUx-74" value="YES" style="edgeLabel;resizable=0;html=1;align=center;verticalAlign=middle;" connectable="0" vertex="1" parent="r75jW0JB1b5-8rUYqXUx-73">
          <mxGeometry relative="1" as="geometry" />
        </mxCell>
        <mxCell id="r75jW0JB1b5-8rUYqXUx-80" value="print SOLD OUT" style="rounded=0;whiteSpace=wrap;html=1;shadow=1;" vertex="1" parent="WIyWlLk6GJQsqaUBKTNV-1">
          <mxGeometry x="1020" y="300" width="120" height="60" as="geometry" />
        </mxCell>
        <mxCell id="r75jW0JB1b5-8rUYqXUx-82" value="" style="endArrow=classic;html=1;entryX=0.5;entryY=1;entryDx=0;entryDy=0;exitX=1;exitY=0.5;exitDx=0;exitDy=0;" edge="1" parent="WIyWlLk6GJQsqaUBKTNV-1" source="r75jW0JB1b5-8rUYqXUx-71" target="r75jW0JB1b5-8rUYqXUx-80">
          <mxGeometry relative="1" as="geometry">
            <mxPoint x="740" y="600" as="sourcePoint" />
            <mxPoint x="900" y="600" as="targetPoint" />
            <Array as="points">
              <mxPoint x="1080" y="700" />
            </Array>
          </mxGeometry>
        </mxCell>
        <mxCell id="r75jW0JB1b5-8rUYqXUx-83" value="NO" style="edgeLabel;resizable=0;html=1;align=center;verticalAlign=middle;" connectable="0" vertex="1" parent="r75jW0JB1b5-8rUYqXUx-82">
          <mxGeometry relative="1" as="geometry">
            <mxPoint x="-220" y="49" as="offset" />
          </mxGeometry>
        </mxCell>
        <mxCell id="r75jW0JB1b5-8rUYqXUx-87" value="" style="endArrow=classic;html=1;entryX=1;entryY=0.25;entryDx=0;entryDy=0;exitX=0;exitY=0.5;exitDx=0;exitDy=0;" edge="1" parent="WIyWlLk6GJQsqaUBKTNV-1" source="r75jW0JB1b5-8rUYqXUx-80" target="r75jW0JB1b5-8rUYqXUx-3">
          <mxGeometry width="50" height="50" relative="1" as="geometry">
            <mxPoint x="790" y="420" as="sourcePoint" />
            <mxPoint x="840" y="370" as="targetPoint" />
          </mxGeometry>
        </mxCell>
        <mxCell id="r75jW0JB1b5-8rUYqXUx-88" value="" style="endArrow=classic;html=1;entryX=0.5;entryY=0;entryDx=0;entryDy=0;exitX=0.5;exitY=1;exitDx=0;exitDy=0;" edge="1" parent="WIyWlLk6GJQsqaUBKTNV-1" source="r75jW0JB1b5-8rUYqXUx-71" target="r75jW0JB1b5-8rUYqXUx-38">
          <mxGeometry relative="1" as="geometry">
            <mxPoint x="973.5" y="810" as="sourcePoint" />
            <mxPoint x="900" y="740" as="targetPoint" />
            <Array as="points">
              <mxPoint x="960" y="770" />
            </Array>
          </mxGeometry>
        </mxCell>
        <mxCell id="r75jW0JB1b5-8rUYqXUx-89" value="YES" style="edgeLabel;resizable=0;html=1;align=center;verticalAlign=middle;rotation=0;" connectable="0" vertex="1" parent="r75jW0JB1b5-8rUYqXUx-88">
          <mxGeometry relative="1" as="geometry">
            <mxPoint x="-68.25" as="offset" />
          </mxGeometry>
        </mxCell>
        <mxCell id="r75jW0JB1b5-8rUYqXUx-92" value="Is coin with that VALUE in machine" style="rhombus;whiteSpace=wrap;html=1;rounded=0;" vertex="1" parent="WIyWlLk6GJQsqaUBKTNV-1">
          <mxGeometry x="200" y="939.38" width="155" height="146.26" as="geometry" />
        </mxCell>
        <mxCell id="r75jW0JB1b5-8rUYqXUx-98" value="change == 0" style="rhombus;whiteSpace=wrap;html=1;shadow=1;" vertex="1" parent="WIyWlLk6GJQsqaUBKTNV-1">
          <mxGeometry x="424" y="760" width="80" height="80" as="geometry" />
        </mxCell>
        <mxCell id="r75jW0JB1b5-8rUYqXUx-99" value="" style="endArrow=classic;html=1;exitX=0.5;exitY=0;exitDx=0;exitDy=0;" edge="1" parent="WIyWlLk6GJQsqaUBKTNV-1" source="r75jW0JB1b5-8rUYqXUx-98">
          <mxGeometry relative="1" as="geometry">
            <mxPoint x="380" y="830" as="sourcePoint" />
            <mxPoint x="464" y="710" as="targetPoint" />
          </mxGeometry>
        </mxCell>
        <mxCell id="r75jW0JB1b5-8rUYqXUx-100" value="YES" style="edgeLabel;resizable=0;html=1;align=center;verticalAlign=middle;" connectable="0" vertex="1" parent="r75jW0JB1b5-8rUYqXUx-99">
          <mxGeometry relative="1" as="geometry" />
        </mxCell>
        <mxCell id="r75jW0JB1b5-8rUYqXUx-102" value="" style="endArrow=classic;html=1;entryX=0.5;entryY=0;entryDx=0;entryDy=0;exitX=0.5;exitY=1;exitDx=0;exitDy=0;" edge="1" parent="WIyWlLk6GJQsqaUBKTNV-1" source="r75jW0JB1b5-8rUYqXUx-98" target="r75jW0JB1b5-8rUYqXUx-50">
          <mxGeometry relative="1" as="geometry">
            <mxPoint x="380" y="830" as="sourcePoint" />
            <mxPoint x="540" y="830" as="targetPoint" />
            <Array as="points">
              <mxPoint x="464" y="903" />
            </Array>
          </mxGeometry>
        </mxCell>
        <mxCell id="r75jW0JB1b5-8rUYqXUx-103" value="NO" style="edgeLabel;resizable=0;html=1;align=center;verticalAlign=middle;" connectable="0" vertex="1" parent="r75jW0JB1b5-8rUYqXUx-102">
          <mxGeometry relative="1" as="geometry">
            <mxPoint x="-9" y="-33.010000000000005" as="offset" />
          </mxGeometry>
        </mxCell>
        <mxCell id="r75jW0JB1b5-8rUYqXUx-107" value="" style="endArrow=classic;html=1;entryX=0.5;entryY=1;entryDx=0;entryDy=0;exitX=0;exitY=0.5;exitDx=0;exitDy=0;" edge="1" parent="WIyWlLk6GJQsqaUBKTNV-1" source="r75jW0JB1b5-8rUYqXUx-92" target="r75jW0JB1b5-8rUYqXUx-22">
          <mxGeometry relative="1" as="geometry">
            <mxPoint x="330" y="830" as="sourcePoint" />
            <mxPoint x="52.5" y="1012.51" as="targetPoint" />
            <Array as="points">
              <mxPoint x="75" y="1013" />
            </Array>
          </mxGeometry>
        </mxCell>
        <mxCell id="r75jW0JB1b5-8rUYqXUx-108" value="NO" style="edgeLabel;resizable=0;html=1;align=center;verticalAlign=middle;" connectable="0" vertex="1" parent="r75jW0JB1b5-8rUYqXUx-107">
          <mxGeometry relative="1" as="geometry">
            <mxPoint x="45" y="123.5" as="offset" />
          </mxGeometry>
        </mxCell>
        <mxCell id="r75jW0JB1b5-8rUYqXUx-110" value="" style="endArrow=classic;html=1;entryX=0;entryY=0.5;entryDx=0;entryDy=0;exitX=0.5;exitY=0;exitDx=0;exitDy=0;" edge="1" parent="WIyWlLk6GJQsqaUBKTNV-1" source="r75jW0JB1b5-8rUYqXUx-61" target="r75jW0JB1b5-8rUYqXUx-98">
          <mxGeometry width="50" height="50" relative="1" as="geometry">
            <mxPoint x="570" y="950" as="sourcePoint" />
            <mxPoint x="620" y="900" as="targetPoint" />
            <Array as="points">
              <mxPoint x="276" y="800" />
            </Array>
          </mxGeometry>
        </mxCell>
        <mxCell id="r75jW0JB1b5-8rUYqXUx-113" value="" style="edgeStyle=orthogonalEdgeStyle;rounded=0;orthogonalLoop=1;jettySize=auto;html=1;" edge="1" parent="WIyWlLk6GJQsqaUBKTNV-1" source="r75jW0JB1b5-8rUYqXUx-111" target="r75jW0JB1b5-8rUYqXUx-112">
          <mxGeometry relative="1" as="geometry" />
        </mxCell>
        <mxCell id="r75jW0JB1b5-8rUYqXUx-111" value="add COINS to machine budget" style="rounded=0;whiteSpace=wrap;html=1;shadow=1;" vertex="1" parent="WIyWlLk6GJQsqaUBKTNV-1">
          <mxGeometry x="404" y="650" width="126" height="60" as="geometry" />
        </mxCell>
        <mxCell id="r75jW0JB1b5-8rUYqXUx-112" value="give product" style="shape=parallelogram;perimeter=parallelogramPerimeter;whiteSpace=wrap;html=1;fixedSize=1;rounded=0;shadow=1;" vertex="1" parent="WIyWlLk6GJQsqaUBKTNV-1">
          <mxGeometry x="250" y="700" width="120" height="60" as="geometry" />
        </mxCell>
        <mxCell id="r75jW0JB1b5-8rUYqXUx-116" value="" style="endArrow=classic;html=1;exitX=0;exitY=0.5;exitDx=0;exitDy=0;entryX=1;entryY=0.5;entryDx=0;entryDy=0;" edge="1" parent="WIyWlLk6GJQsqaUBKTNV-1" source="r75jW0JB1b5-8rUYqXUx-42" target="r75jW0JB1b5-8rUYqXUx-23">
          <mxGeometry width="50" height="50" relative="1" as="geometry">
            <mxPoint x="540" y="440" as="sourcePoint" />
            <mxPoint x="590" y="390" as="targetPoint" />
          </mxGeometry>
        </mxCell>
        <mxCell id="r75jW0JB1b5-8rUYqXUx-117" value="" style="endArrow=classic;html=1;entryX=0.75;entryY=1;entryDx=0;entryDy=0;" edge="1" parent="WIyWlLk6GJQsqaUBKTNV-1" source="r75jW0JB1b5-8rUYqXUx-112" target="r75jW0JB1b5-8rUYqXUx-22">
          <mxGeometry width="50" height="50" relative="1" as="geometry">
            <mxPoint x="540" y="840" as="sourcePoint" />
            <mxPoint x="590" y="790" as="targetPoint" />
            <Array as="points">
              <mxPoint x="108" y="730" />
            </Array>
          </mxGeometry>
        </mxCell>
      </root>
    </mxGraphModel>
  </diagram>
</mxfile>
